<mxfile host="app.diagrams.net" agent="Mozilla/5.0 (Windows NT 10.0; Win64; x64) AppleWebKit/537.36 (KHTML, like Gecko) Chrome/133.0.0.0 Safari/537.36 Edg/133.0.0.0" version="26.0.15" pages="5">
  <diagram name="context-diagram" id="O5p6k6iPGNvbvgjDATUz">
    <mxGraphModel dx="1588" dy="1064" grid="0" gridSize="10" guides="1" tooltips="1" connect="1" arrows="1" fold="1" page="0" pageScale="1" pageWidth="850" pageHeight="1100" math="0" shadow="0">
      <root>
        <mxCell id="0" />
        <mxCell id="1" parent="0" />
        <mxCell id="q63gI_Fwjk9fpuUXVtqA-4" value="" style="group" vertex="1" connectable="0" parent="1">
          <mxGeometry x="91" y="19" width="100" height="109" as="geometry" />
        </mxCell>
        <mxCell id="q63gI_Fwjk9fpuUXVtqA-2" value="&lt;div&gt;&lt;br&gt;&lt;/div&gt;Job Application Management System" style="rounded=1;whiteSpace=wrap;html=1;absoluteArcSize=1;arcSize=14;strokeWidth=2;" vertex="1" parent="q63gI_Fwjk9fpuUXVtqA-4">
          <mxGeometry width="100" height="109" as="geometry" />
        </mxCell>
        <mxCell id="q63gI_Fwjk9fpuUXVtqA-3" value="" style="endArrow=none;html=1;rounded=0;fontSize=12;startSize=8;endSize=8;curved=1;exitX=0;exitY=0.25;exitDx=0;exitDy=0;entryX=1;entryY=0.25;entryDx=0;entryDy=0;" edge="1" parent="q63gI_Fwjk9fpuUXVtqA-4" source="q63gI_Fwjk9fpuUXVtqA-2" target="q63gI_Fwjk9fpuUXVtqA-2">
          <mxGeometry width="50" height="50" relative="1" as="geometry">
            <mxPoint x="25" y="84" as="sourcePoint" />
            <mxPoint x="75" y="34" as="targetPoint" />
          </mxGeometry>
        </mxCell>
        <mxCell id="q63gI_Fwjk9fpuUXVtqA-5" value="0" style="text;html=1;align=center;verticalAlign=middle;whiteSpace=wrap;rounded=0;" vertex="1" parent="q63gI_Fwjk9fpuUXVtqA-4">
          <mxGeometry x="17" width="60" height="30" as="geometry" />
        </mxCell>
        <mxCell id="q63gI_Fwjk9fpuUXVtqA-11" value="" style="group" vertex="1" connectable="0" parent="1">
          <mxGeometry x="-123" y="-159" width="100" height="100" as="geometry" />
        </mxCell>
        <mxCell id="q63gI_Fwjk9fpuUXVtqA-7" value="" style="html=1;dashed=0;whiteSpace=wrap;shape=mxgraph.dfd.externalEntity" vertex="1" parent="q63gI_Fwjk9fpuUXVtqA-11">
          <mxGeometry width="100" height="100" as="geometry" />
        </mxCell>
        <mxCell id="q63gI_Fwjk9fpuUXVtqA-10" value="User" style="text;html=1;align=center;verticalAlign=middle;whiteSpace=wrap;rounded=0;" vertex="1" parent="q63gI_Fwjk9fpuUXVtqA-11">
          <mxGeometry x="20" y="35" width="60" height="30" as="geometry" />
        </mxCell>
        <mxCell id="q63gI_Fwjk9fpuUXVtqA-12" value="" style="endArrow=classic;html=1;rounded=0;fontSize=12;startSize=8;endSize=8;exitX=0;exitY=0;exitDx=100;exitDy=55;exitPerimeter=0;entryX=0.5;entryY=0;entryDx=0;entryDy=0;" edge="1" parent="1" source="q63gI_Fwjk9fpuUXVtqA-7" target="q63gI_Fwjk9fpuUXVtqA-5">
          <mxGeometry width="50" height="50" relative="1" as="geometry">
            <mxPoint x="25" y="-24" as="sourcePoint" />
            <mxPoint x="75" y="-74" as="targetPoint" />
            <Array as="points">
              <mxPoint x="138" y="-104" />
            </Array>
          </mxGeometry>
        </mxCell>
        <mxCell id="q63gI_Fwjk9fpuUXVtqA-14" value="job application details" style="edgeLabel;html=1;align=center;verticalAlign=middle;resizable=0;points=[];fontSize=12;" vertex="1" connectable="0" parent="q63gI_Fwjk9fpuUXVtqA-12">
          <mxGeometry x="-0.3841" y="3" relative="1" as="geometry">
            <mxPoint x="13" y="-8" as="offset" />
          </mxGeometry>
        </mxCell>
        <mxCell id="q63gI_Fwjk9fpuUXVtqA-15" value="" style="endArrow=classic;html=1;rounded=0;fontSize=12;startSize=8;endSize=8;entryX=0;entryY=0;entryDx=55;entryDy=100;entryPerimeter=0;exitX=0;exitY=0.5;exitDx=0;exitDy=0;" edge="1" parent="1" source="q63gI_Fwjk9fpuUXVtqA-2" target="q63gI_Fwjk9fpuUXVtqA-7">
          <mxGeometry width="50" height="50" relative="1" as="geometry">
            <mxPoint x="25" y="142" as="sourcePoint" />
            <mxPoint x="75" y="92" as="targetPoint" />
            <Array as="points">
              <mxPoint x="-68" y="74" />
            </Array>
          </mxGeometry>
        </mxCell>
        <mxCell id="q63gI_Fwjk9fpuUXVtqA-16" value="job application analysis" style="edgeLabel;html=1;align=center;verticalAlign=middle;resizable=0;points=[];fontSize=12;" vertex="1" connectable="0" parent="q63gI_Fwjk9fpuUXVtqA-15">
          <mxGeometry x="-0.1164" y="4" relative="1" as="geometry">
            <mxPoint x="32" y="6" as="offset" />
          </mxGeometry>
        </mxCell>
        <mxCell id="q63gI_Fwjk9fpuUXVtqA-17" value="Supabase&lt;div&gt;Service&lt;/div&gt;" style="html=1;dashed=0;whiteSpace=wrap;shape=mxgraph.dfd.externalEntity" vertex="1" parent="1">
          <mxGeometry x="304" y="190" width="100" height="100" as="geometry" />
        </mxCell>
        <mxCell id="q63gI_Fwjk9fpuUXVtqA-19" value="" style="endArrow=classic;html=1;rounded=0;fontSize=12;startSize=8;endSize=8;exitX=1;exitY=0.5;exitDx=0;exitDy=0;entryX=0;entryY=0;entryDx=45;entryDy=0;entryPerimeter=0;" edge="1" parent="1" source="q63gI_Fwjk9fpuUXVtqA-2" target="q63gI_Fwjk9fpuUXVtqA-17">
          <mxGeometry width="50" height="50" relative="1" as="geometry">
            <mxPoint x="191" y="67" as="sourcePoint" />
            <mxPoint x="352" y="190" as="targetPoint" />
            <Array as="points">
              <mxPoint x="350" y="74" />
            </Array>
          </mxGeometry>
        </mxCell>
        <mxCell id="q63gI_Fwjk9fpuUXVtqA-20" value="users job application data" style="edgeLabel;html=1;align=center;verticalAlign=middle;resizable=0;points=[];fontSize=12;" vertex="1" connectable="0" parent="q63gI_Fwjk9fpuUXVtqA-19">
          <mxGeometry x="-0.3841" y="3" relative="1" as="geometry">
            <mxPoint x="6" y="-7" as="offset" />
          </mxGeometry>
        </mxCell>
        <mxCell id="q63gI_Fwjk9fpuUXVtqA-21" style="edgeStyle=none;curved=1;rounded=0;orthogonalLoop=1;jettySize=auto;html=1;entryX=0;entryY=0;entryDx=45;entryDy=0;entryPerimeter=0;fontSize=12;startSize=8;endSize=8;" edge="1" parent="1" source="q63gI_Fwjk9fpuUXVtqA-17" target="q63gI_Fwjk9fpuUXVtqA-17">
          <mxGeometry relative="1" as="geometry" />
        </mxCell>
        <mxCell id="q63gI_Fwjk9fpuUXVtqA-24" value="" style="endArrow=classic;html=1;rounded=0;fontSize=12;startSize=8;endSize=8;exitX=1;exitY=0.75;exitDx=0;exitDy=0;entryX=0;entryY=0;entryDx=22.5;entryDy=0;entryPerimeter=0;" edge="1" parent="1" source="q63gI_Fwjk9fpuUXVtqA-2" target="q63gI_Fwjk9fpuUXVtqA-17">
          <mxGeometry width="50" height="50" relative="1" as="geometry">
            <mxPoint x="41" y="151" as="sourcePoint" />
            <mxPoint x="91" y="101" as="targetPoint" />
            <Array as="points">
              <mxPoint x="327" y="101" />
            </Array>
          </mxGeometry>
        </mxCell>
        <mxCell id="q63gI_Fwjk9fpuUXVtqA-26" value="users authentication data" style="edgeLabel;html=1;align=center;verticalAlign=middle;resizable=0;points=[];fontSize=12;" vertex="1" connectable="0" parent="1">
          <mxGeometry x="258.9990136426393" y="92.9973091090353" as="geometry" />
        </mxCell>
        <mxCell id="q63gI_Fwjk9fpuUXVtqA-27" value="" style="endArrow=classic;html=1;rounded=0;fontSize=12;startSize=8;endSize=8;exitX=0;exitY=0;exitDx=0;exitDy=22.5;exitPerimeter=0;entryX=0.75;entryY=1;entryDx=0;entryDy=0;" edge="1" parent="1" source="q63gI_Fwjk9fpuUXVtqA-17" target="q63gI_Fwjk9fpuUXVtqA-2">
          <mxGeometry width="50" height="50" relative="1" as="geometry">
            <mxPoint x="41" y="151" as="sourcePoint" />
            <mxPoint x="91" y="101" as="targetPoint" />
            <Array as="points">
              <mxPoint x="166" y="213" />
            </Array>
          </mxGeometry>
        </mxCell>
        <mxCell id="q63gI_Fwjk9fpuUXVtqA-28" value="authentication JWT" style="edgeLabel;html=1;align=center;verticalAlign=middle;resizable=0;points=[];fontSize=12;" vertex="1" connectable="0" parent="1">
          <mxGeometry x="220.99901364263928" y="221.99730910903529" as="geometry" />
        </mxCell>
        <mxCell id="q63gI_Fwjk9fpuUXVtqA-29" value="" style="endArrow=classic;html=1;rounded=0;fontSize=12;startSize=8;endSize=8;entryX=0.5;entryY=1;entryDx=0;entryDy=0;exitX=0;exitY=0;exitDx=0;exitDy=45;exitPerimeter=0;" edge="1" parent="1" source="q63gI_Fwjk9fpuUXVtqA-17" target="q63gI_Fwjk9fpuUXVtqA-2">
          <mxGeometry width="50" height="50" relative="1" as="geometry">
            <mxPoint x="83" y="243" as="sourcePoint" />
            <mxPoint x="133" y="193" as="targetPoint" />
            <Array as="points">
              <mxPoint x="141" y="235" />
            </Array>
          </mxGeometry>
        </mxCell>
        <mxCell id="q63gI_Fwjk9fpuUXVtqA-30" value="users job application data" style="edgeLabel;html=1;align=center;verticalAlign=middle;resizable=0;points=[];fontSize=12;" vertex="1" connectable="0" parent="1">
          <mxGeometry x="209.99901364263928" y="244.99730910903529" as="geometry" />
        </mxCell>
        <mxCell id="q63gI_Fwjk9fpuUXVtqA-31" value="" style="endArrow=classic;html=1;rounded=0;fontSize=12;startSize=8;endSize=8;exitX=0;exitY=0;exitDx=100;exitDy=77.5;exitPerimeter=0;entryX=0.25;entryY=0;entryDx=0;entryDy=0;" edge="1" parent="1" source="q63gI_Fwjk9fpuUXVtqA-7" target="q63gI_Fwjk9fpuUXVtqA-2">
          <mxGeometry width="50" height="50" relative="1" as="geometry">
            <mxPoint x="45" y="152" as="sourcePoint" />
            <mxPoint x="95" y="102" as="targetPoint" />
            <Array as="points">
              <mxPoint x="116" y="-81" />
            </Array>
          </mxGeometry>
        </mxCell>
        <mxCell id="q63gI_Fwjk9fpuUXVtqA-32" value="authentication data" style="edgeLabel;html=1;align=center;verticalAlign=middle;resizable=0;points=[];fontSize=12;" vertex="1" connectable="0" parent="1">
          <mxGeometry x="62" y="-90" as="geometry" />
        </mxCell>
        <mxCell id="q63gI_Fwjk9fpuUXVtqA-33" value="" style="endArrow=classic;html=1;rounded=0;fontSize=12;startSize=8;endSize=8;exitX=0;exitY=0.25;exitDx=0;exitDy=0;entryX=0;entryY=0;entryDx=77.5;entryDy=100;entryPerimeter=0;" edge="1" parent="1" source="q63gI_Fwjk9fpuUXVtqA-2" target="q63gI_Fwjk9fpuUXVtqA-7">
          <mxGeometry width="50" height="50" relative="1" as="geometry">
            <mxPoint x="-13" y="-71" as="sourcePoint" />
            <mxPoint x="126" y="29" as="targetPoint" />
            <Array as="points">
              <mxPoint x="-45" y="46" />
            </Array>
          </mxGeometry>
        </mxCell>
        <mxCell id="q63gI_Fwjk9fpuUXVtqA-34" value="authentication JWTs" style="edgeLabel;html=1;align=center;verticalAlign=middle;resizable=0;points=[];fontSize=12;" vertex="1" connectable="0" parent="1">
          <mxGeometry x="11" y="55" as="geometry" />
        </mxCell>
        <mxCell id="q63gI_Fwjk9fpuUXVtqA-35" value="&lt;b&gt;&lt;font style=&quot;font-size: 18px;&quot;&gt;Busybee - Data Flow - Context Diagram&lt;/font&gt;&lt;/b&gt;" style="text;html=1;align=center;verticalAlign=middle;whiteSpace=wrap;rounded=0;" vertex="1" parent="1">
          <mxGeometry x="-123" y="-212" width="534" height="30" as="geometry" />
        </mxCell>
      </root>
    </mxGraphModel>
  </diagram>
  <diagram id="zpxP3Ps4VpmsDWlUv-ii" name="diagram-0-JobApplicationManagementSystem">
    <mxGraphModel dx="1588" dy="1064" grid="0" gridSize="10" guides="1" tooltips="1" connect="1" arrows="1" fold="1" page="0" pageScale="1" pageWidth="850" pageHeight="1100" math="0" shadow="0">
      <root>
        <mxCell id="0" />
        <mxCell id="1" parent="0" />
        <mxCell id="yKaXMZlZZyySH07uH2L8-1" value="" style="group" vertex="1" connectable="0" parent="1">
          <mxGeometry x="165" y="-101" width="100" height="117" as="geometry" />
        </mxCell>
        <mxCell id="3px4NZemlOhLX4Ce7mVa-1" value="Manage Jobs" style="rounded=1;whiteSpace=wrap;html=1;absoluteArcSize=1;arcSize=14;strokeWidth=2;" vertex="1" parent="yKaXMZlZZyySH07uH2L8-1">
          <mxGeometry width="100" height="117" as="geometry" />
        </mxCell>
        <mxCell id="3px4NZemlOhLX4Ce7mVa-2" value="" style="endArrow=none;html=1;rounded=0;fontSize=12;startSize=8;endSize=8;curved=1;exitX=0;exitY=0.25;exitDx=0;exitDy=0;entryX=1;entryY=0.25;entryDx=0;entryDy=0;" edge="1" parent="yKaXMZlZZyySH07uH2L8-1" source="3px4NZemlOhLX4Ce7mVa-1" target="3px4NZemlOhLX4Ce7mVa-1">
          <mxGeometry width="50" height="50" relative="1" as="geometry">
            <mxPoint x="352" y="274" as="sourcePoint" />
            <mxPoint x="402" y="224" as="targetPoint" />
          </mxGeometry>
        </mxCell>
        <mxCell id="3px4NZemlOhLX4Ce7mVa-3" value="1" style="text;html=1;align=center;verticalAlign=middle;whiteSpace=wrap;rounded=0;" vertex="1" parent="yKaXMZlZZyySH07uH2L8-1">
          <mxGeometry x="14" y="5" width="63" height="26" as="geometry" />
        </mxCell>
        <mxCell id="962dw4XNeouLEIoYBmzk-1" value="&lt;b&gt;&lt;font style=&quot;font-size: 18px;&quot;&gt;Busybee - Data Flow - Diagram 0 for Job Application Management System&lt;/font&gt;&lt;/b&gt;" style="text;html=1;align=center;verticalAlign=middle;whiteSpace=wrap;rounded=0;" vertex="1" parent="1">
          <mxGeometry x="-123" y="-224" width="656" height="42" as="geometry" />
        </mxCell>
        <mxCell id="962dw4XNeouLEIoYBmzk-6" value="" style="group" vertex="1" connectable="0" parent="1">
          <mxGeometry x="165" y="80" width="100" height="117" as="geometry" />
        </mxCell>
        <mxCell id="962dw4XNeouLEIoYBmzk-7" value="Manage Groups" style="rounded=1;whiteSpace=wrap;html=1;absoluteArcSize=1;arcSize=14;strokeWidth=2;" vertex="1" parent="962dw4XNeouLEIoYBmzk-6">
          <mxGeometry width="100" height="117" as="geometry" />
        </mxCell>
        <mxCell id="962dw4XNeouLEIoYBmzk-8" value="" style="endArrow=none;html=1;rounded=0;fontSize=12;startSize=8;endSize=8;curved=1;exitX=0;exitY=0.25;exitDx=0;exitDy=0;entryX=1;entryY=0.25;entryDx=0;entryDy=0;" edge="1" parent="962dw4XNeouLEIoYBmzk-6" source="962dw4XNeouLEIoYBmzk-7" target="962dw4XNeouLEIoYBmzk-7">
          <mxGeometry width="50" height="50" relative="1" as="geometry">
            <mxPoint x="352" y="274" as="sourcePoint" />
            <mxPoint x="402" y="224" as="targetPoint" />
          </mxGeometry>
        </mxCell>
        <mxCell id="962dw4XNeouLEIoYBmzk-9" value="2" style="text;html=1;align=center;verticalAlign=middle;whiteSpace=wrap;rounded=0;" vertex="1" parent="962dw4XNeouLEIoYBmzk-6">
          <mxGeometry x="14" y="5" width="63" height="26" as="geometry" />
        </mxCell>
        <mxCell id="962dw4XNeouLEIoYBmzk-10" value="" style="group" vertex="1" connectable="0" parent="1">
          <mxGeometry x="165" y="252" width="100" height="117" as="geometry" />
        </mxCell>
        <mxCell id="962dw4XNeouLEIoYBmzk-11" value="Manage Documents" style="rounded=1;whiteSpace=wrap;html=1;absoluteArcSize=1;arcSize=14;strokeWidth=2;" vertex="1" parent="962dw4XNeouLEIoYBmzk-10">
          <mxGeometry width="100" height="117" as="geometry" />
        </mxCell>
        <mxCell id="962dw4XNeouLEIoYBmzk-12" value="" style="endArrow=none;html=1;rounded=0;fontSize=12;startSize=8;endSize=8;curved=1;exitX=0;exitY=0.25;exitDx=0;exitDy=0;entryX=1;entryY=0.25;entryDx=0;entryDy=0;" edge="1" parent="962dw4XNeouLEIoYBmzk-10" source="962dw4XNeouLEIoYBmzk-11" target="962dw4XNeouLEIoYBmzk-11">
          <mxGeometry width="50" height="50" relative="1" as="geometry">
            <mxPoint x="352" y="274" as="sourcePoint" />
            <mxPoint x="402" y="224" as="targetPoint" />
          </mxGeometry>
        </mxCell>
        <mxCell id="962dw4XNeouLEIoYBmzk-13" value="3" style="text;html=1;align=center;verticalAlign=middle;whiteSpace=wrap;rounded=0;" vertex="1" parent="962dw4XNeouLEIoYBmzk-10">
          <mxGeometry x="14" y="5" width="63" height="26" as="geometry" />
        </mxCell>
        <mxCell id="962dw4XNeouLEIoYBmzk-14" value="User" style="html=1;dashed=0;whiteSpace=wrap;shape=mxgraph.dfd.externalEntity" vertex="1" parent="1">
          <mxGeometry x="-101" y="84" width="100" height="100" as="geometry" />
        </mxCell>
        <mxCell id="962dw4XNeouLEIoYBmzk-16" value="" style="endArrow=classic;html=1;rounded=0;fontSize=12;startSize=8;endSize=8;curved=1;exitX=0;exitY=0;exitDx=100;exitDy=55;exitPerimeter=0;entryX=0;entryY=0.5;entryDx=0;entryDy=0;" edge="1" parent="1" source="962dw4XNeouLEIoYBmzk-14" target="3px4NZemlOhLX4Ce7mVa-1">
          <mxGeometry width="50" height="50" relative="1" as="geometry">
            <mxPoint x="178" y="116" as="sourcePoint" />
            <mxPoint x="228" y="66" as="targetPoint" />
          </mxGeometry>
        </mxCell>
        <mxCell id="962dw4XNeouLEIoYBmzk-18" value="job details" style="edgeLabel;html=1;align=center;verticalAlign=middle;resizable=0;points=[];fontSize=12;rotation=-45;" vertex="1" connectable="0" parent="962dw4XNeouLEIoYBmzk-16">
          <mxGeometry x="-0.0556" relative="1" as="geometry">
            <mxPoint x="1" y="-16" as="offset" />
          </mxGeometry>
        </mxCell>
        <mxCell id="962dw4XNeouLEIoYBmzk-20" value="" style="endArrow=classic;html=1;rounded=0;fontSize=12;startSize=8;endSize=8;curved=1;exitX=0;exitY=0;exitDx=100;exitDy=55;exitPerimeter=0;entryX=0;entryY=0.5;entryDx=0;entryDy=0;" edge="1" parent="1" source="962dw4XNeouLEIoYBmzk-14" target="962dw4XNeouLEIoYBmzk-7">
          <mxGeometry width="50" height="50" relative="1" as="geometry">
            <mxPoint x="237" y="227" as="sourcePoint" />
            <mxPoint x="287" y="177" as="targetPoint" />
          </mxGeometry>
        </mxCell>
        <mxCell id="962dw4XNeouLEIoYBmzk-22" value="group details" style="edgeLabel;html=1;align=center;verticalAlign=middle;resizable=0;points=[];fontSize=12;" vertex="1" connectable="0" parent="962dw4XNeouLEIoYBmzk-20">
          <mxGeometry x="-0.0186" y="-4" relative="1" as="geometry">
            <mxPoint x="-5" y="-14" as="offset" />
          </mxGeometry>
        </mxCell>
        <mxCell id="962dw4XNeouLEIoYBmzk-21" value="" style="endArrow=classic;html=1;rounded=0;fontSize=12;startSize=8;endSize=8;curved=1;exitX=0;exitY=0;exitDx=100;exitDy=55;exitPerimeter=0;entryX=0;entryY=0.5;entryDx=0;entryDy=0;" edge="1" parent="1" source="962dw4XNeouLEIoYBmzk-14" target="962dw4XNeouLEIoYBmzk-11">
          <mxGeometry width="50" height="50" relative="1" as="geometry">
            <mxPoint x="135" y="149" as="sourcePoint" />
            <mxPoint x="315" y="149" as="targetPoint" />
          </mxGeometry>
        </mxCell>
        <mxCell id="962dw4XNeouLEIoYBmzk-23" value="document upload" style="edgeLabel;html=1;align=center;verticalAlign=middle;resizable=0;points=[];fontSize=12;rotation=45;" vertex="1" connectable="0" parent="962dw4XNeouLEIoYBmzk-21">
          <mxGeometry x="-0.0161" y="2" relative="1" as="geometry">
            <mxPoint x="-10" y="4" as="offset" />
          </mxGeometry>
        </mxCell>
        <mxCell id="962dw4XNeouLEIoYBmzk-39" value="" style="group" vertex="1" connectable="0" parent="1">
          <mxGeometry x="314.9951700941512" y="20.995271099229" width="233.0048299058488" height="248" as="geometry" />
        </mxCell>
        <mxCell id="962dw4XNeouLEIoYBmzk-24" value="Supabase&lt;div&gt;Service&lt;/div&gt;" style="html=1;dashed=0;whiteSpace=wrap;shape=mxgraph.dfd.externalEntity" vertex="1" parent="962dw4XNeouLEIoYBmzk-39">
          <mxGeometry x="133.0048299058488" y="65.004728900771" width="100" height="100" as="geometry" />
        </mxCell>
        <mxCell id="962dw4XNeouLEIoYBmzk-28" value="" style="endArrow=classic;startArrow=classic;html=1;rounded=0;fontSize=12;startSize=8;endSize=8;curved=1;exitX=-0.007;exitY=0.527;exitDx=0;exitDy=0;exitPerimeter=0;entryX=1;entryY=0.5;entryDx=0;entryDy=0;" edge="1" parent="962dw4XNeouLEIoYBmzk-39" source="962dw4XNeouLEIoYBmzk-24" target="962dw4XNeouLEIoYBmzk-7">
          <mxGeometry width="50" height="50" relative="1" as="geometry">
            <mxPoint x="-77.9951700941512" y="123.004728900771" as="sourcePoint" />
            <mxPoint x="-27.995170094151206" y="73.004728900771" as="targetPoint" />
          </mxGeometry>
        </mxCell>
        <mxCell id="962dw4XNeouLEIoYBmzk-31" value="Insert Group" style="edgeLabel;html=1;align=center;verticalAlign=middle;resizable=0;points=[];fontSize=12;" vertex="1" connectable="0" parent="962dw4XNeouLEIoYBmzk-28">
          <mxGeometry x="0.0291" y="4" relative="1" as="geometry">
            <mxPoint x="27" y="-17" as="offset" />
          </mxGeometry>
        </mxCell>
        <mxCell id="962dw4XNeouLEIoYBmzk-29" value="" style="endArrow=classic;startArrow=classic;html=1;rounded=0;fontSize=12;startSize=8;endSize=8;curved=1;exitX=1;exitY=0.5;exitDx=0;exitDy=0;entryX=0;entryY=0;entryDx=0;entryDy=67.5;entryPerimeter=0;" edge="1" parent="962dw4XNeouLEIoYBmzk-39" source="962dw4XNeouLEIoYBmzk-11" target="962dw4XNeouLEIoYBmzk-24">
          <mxGeometry width="50" height="50" relative="1" as="geometry">
            <mxPoint x="-77.9951700941512" y="123.004728900771" as="sourcePoint" />
            <mxPoint x="-27.995170094151206" y="73.004728900771" as="targetPoint" />
          </mxGeometry>
        </mxCell>
        <mxCell id="962dw4XNeouLEIoYBmzk-30" value="" style="endArrow=classic;startArrow=classic;html=1;rounded=0;fontSize=12;startSize=8;endSize=8;curved=1;exitX=-0.007;exitY=0.377;exitDx=0;exitDy=0;exitPerimeter=0;entryX=1;entryY=0.5;entryDx=0;entryDy=0;" edge="1" parent="962dw4XNeouLEIoYBmzk-39" source="962dw4XNeouLEIoYBmzk-24" target="3px4NZemlOhLX4Ce7mVa-1">
          <mxGeometry width="50" height="50" relative="1" as="geometry">
            <mxPoint x="128.0048299058488" y="126.004728900771" as="sourcePoint" />
            <mxPoint x="-46.995170094151206" y="127.004728900771" as="targetPoint" />
          </mxGeometry>
        </mxCell>
        <mxCell id="962dw4XNeouLEIoYBmzk-32" value="Select Groups" style="edgeLabel;html=1;align=center;verticalAlign=middle;resizable=0;points=[];fontSize=12;" vertex="1" connectable="0" parent="962dw4XNeouLEIoYBmzk-39">
          <mxGeometry x="5.005819601905614" y="129.00640197139813" as="geometry" />
        </mxCell>
        <mxCell id="962dw4XNeouLEIoYBmzk-35" value="Insert Job" style="edgeLabel;html=1;align=center;verticalAlign=middle;resizable=0;points=[];fontSize=12;rotation=45;" vertex="1" connectable="0" parent="962dw4XNeouLEIoYBmzk-39">
          <mxGeometry x="66" y="28" as="geometry" />
        </mxCell>
        <mxCell id="962dw4XNeouLEIoYBmzk-36" value="Select Jobs" style="edgeLabel;html=1;align=center;verticalAlign=middle;resizable=0;points=[];fontSize=12;rotation=45;" vertex="1" connectable="0" parent="962dw4XNeouLEIoYBmzk-39">
          <mxGeometry as="geometry" />
        </mxCell>
        <mxCell id="962dw4XNeouLEIoYBmzk-37" value="Upload Document" style="edgeLabel;html=1;align=center;verticalAlign=middle;resizable=0;points=[];fontSize=12;rotation=-40;" vertex="1" connectable="0" parent="962dw4XNeouLEIoYBmzk-39">
          <mxGeometry x="59" y="176" as="geometry" />
        </mxCell>
        <mxCell id="962dw4XNeouLEIoYBmzk-38" value="Fetch Document" style="edgeLabel;html=1;align=center;verticalAlign=middle;resizable=0;points=[];fontSize=12;rotation=-40;" vertex="1" connectable="0" parent="962dw4XNeouLEIoYBmzk-39">
          <mxGeometry x="12" y="248" as="geometry" />
        </mxCell>
        <mxCell id="H4lXw2sXraJY-aFSKDLj-1" value="" style="group" vertex="1" connectable="0" parent="1">
          <mxGeometry x="-106" y="-101" width="100" height="117" as="geometry" />
        </mxCell>
        <mxCell id="H4lXw2sXraJY-aFSKDLj-2" value="Produce Statistics" style="rounded=1;whiteSpace=wrap;html=1;absoluteArcSize=1;arcSize=14;strokeWidth=2;" vertex="1" parent="H4lXw2sXraJY-aFSKDLj-1">
          <mxGeometry width="100" height="117" as="geometry" />
        </mxCell>
        <mxCell id="H4lXw2sXraJY-aFSKDLj-3" value="" style="endArrow=none;html=1;rounded=0;fontSize=12;startSize=8;endSize=8;curved=1;exitX=0;exitY=0.25;exitDx=0;exitDy=0;entryX=1;entryY=0.25;entryDx=0;entryDy=0;" edge="1" parent="H4lXw2sXraJY-aFSKDLj-1" source="H4lXw2sXraJY-aFSKDLj-2" target="H4lXw2sXraJY-aFSKDLj-2">
          <mxGeometry width="50" height="50" relative="1" as="geometry">
            <mxPoint x="352" y="274" as="sourcePoint" />
            <mxPoint x="402" y="224" as="targetPoint" />
          </mxGeometry>
        </mxCell>
        <mxCell id="H4lXw2sXraJY-aFSKDLj-4" value="4" style="text;html=1;align=center;verticalAlign=middle;whiteSpace=wrap;rounded=0;" vertex="1" parent="H4lXw2sXraJY-aFSKDLj-1">
          <mxGeometry x="14" y="5" width="63" height="26" as="geometry" />
        </mxCell>
        <mxCell id="z-FML763a0oy1dDiS_I2-1" value="" style="endArrow=classic;html=1;rounded=0;fontSize=12;startSize=8;endSize=8;curved=1;exitX=0;exitY=0.5;exitDx=0;exitDy=0;entryX=1;entryY=0.5;entryDx=0;entryDy=0;" edge="1" parent="1" source="3px4NZemlOhLX4Ce7mVa-1" target="H4lXw2sXraJY-aFSKDLj-2">
          <mxGeometry width="50" height="50" relative="1" as="geometry">
            <mxPoint x="143" y="111" as="sourcePoint" />
            <mxPoint x="193" y="61" as="targetPoint" />
          </mxGeometry>
        </mxCell>
        <mxCell id="z-FML763a0oy1dDiS_I2-2" value="Jobs" style="edgeLabel;html=1;align=center;verticalAlign=middle;resizable=0;points=[];fontSize=12;rotation=0;" vertex="1" connectable="0" parent="z-FML763a0oy1dDiS_I2-1">
          <mxGeometry x="-0.0189" y="2" relative="1" as="geometry">
            <mxPoint x="-6" y="-12" as="offset" />
          </mxGeometry>
        </mxCell>
        <mxCell id="z-FML763a0oy1dDiS_I2-3" value="" style="endArrow=classic;html=1;rounded=0;fontSize=12;startSize=8;endSize=8;curved=1;exitX=0.5;exitY=1;exitDx=0;exitDy=0;entryX=0;entryY=0;entryDx=45;entryDy=0;entryPerimeter=0;" edge="1" parent="1" source="H4lXw2sXraJY-aFSKDLj-2" target="962dw4XNeouLEIoYBmzk-14">
          <mxGeometry width="50" height="50" relative="1" as="geometry">
            <mxPoint x="143" y="111" as="sourcePoint" />
            <mxPoint x="193" y="61" as="targetPoint" />
          </mxGeometry>
        </mxCell>
        <mxCell id="z-FML763a0oy1dDiS_I2-4" value="stats/analysis" style="edgeLabel;html=1;align=center;verticalAlign=middle;resizable=0;points=[];fontSize=12;" vertex="1" connectable="0" parent="z-FML763a0oy1dDiS_I2-3">
          <mxGeometry x="-0.0196" y="1" relative="1" as="geometry">
            <mxPoint as="offset" />
          </mxGeometry>
        </mxCell>
      </root>
    </mxGraphModel>
  </diagram>
  <diagram id="eX0ATs62yXGmfWsTlrPb" name="diagram-1-ManageJobs">
    <mxGraphModel dx="1426" dy="797" grid="0" gridSize="10" guides="1" tooltips="1" connect="1" arrows="1" fold="1" page="0" pageScale="1" pageWidth="850" pageHeight="1100" math="0" shadow="0">
      <root>
        <mxCell id="0" />
        <mxCell id="1" parent="0" />
      </root>
    </mxGraphModel>
  </diagram>
  <diagram id="bjzGUI0q7kTnnOWPdjsI" name="diagram-2-ManageGroups">
    <mxGraphModel dx="1426" dy="797" grid="0" gridSize="10" guides="1" tooltips="1" connect="1" arrows="1" fold="1" page="0" pageScale="1" pageWidth="850" pageHeight="1100" math="0" shadow="0">
      <root>
        <mxCell id="0" />
        <mxCell id="1" parent="0" />
      </root>
    </mxGraphModel>
  </diagram>
  <diagram id="9LKeEi9gWjh8HoP_eks4" name="diagram-3-ManageDocuments">
    <mxGraphModel dx="1426" dy="797" grid="0" gridSize="10" guides="1" tooltips="1" connect="1" arrows="1" fold="1" page="0" pageScale="1" pageWidth="850" pageHeight="1100" math="0" shadow="0">
      <root>
        <mxCell id="0" />
        <mxCell id="1" parent="0" />
      </root>
    </mxGraphModel>
  </diagram>
</mxfile>
